<svg width="150" height="135" viewBox="0 0 150 135" fill="none" xmlns="http://www.w3.org/2000/svg">
<path d="M131.563 68.8284L104.578 117.561L113.796 134.209L150 68.8284H131.563Z" fill="#EA5329"/>
<path d="M18.4376 65.38L45.4228 16.6478L36.204 0L0 65.38H18.4376Z" fill="#EA5329"/>
<path d="M101.962 18.3681H47.9917L21.0065 67.1004L47.9917 115.841H101.962L128.94 67.1004L101.962 18.3681Z" fill="white"/>
<path fill-rule="evenodd" clip-rule="evenodd" d="M49.1704 20.3681L23.2926 67.1005L49.1705 113.841H100.783L126.654 67.1005L100.783 20.3681H49.1704ZM101.962 18.3681H47.9917L21.0065 67.1004L47.9917 115.841H101.962L128.94 67.1004L101.962 18.3681Z" fill="#48302A"/>
<path d="M55.8681 48.2925H44.1421C43.2549 48.2925 42.4912 48.6088 41.8663 49.226C41.2415 49.8508 40.9329 50.6146 40.9329 51.5017V66.4369H43.4709V60.0108H56.5392V69.677H59.0773V51.5017C59.0773 50.6146 58.761 49.8508 58.1438 49.226C57.519 48.6088 56.7552 48.2925 55.8681 48.2925ZM43.4709 51.5017C43.4709 51.3166 43.5326 51.1623 43.6715 51.0311C43.8027 50.9 43.9569 50.8306 44.1421 50.8306H55.8681C56.0532 50.8306 56.2075 50.8923 56.3387 51.0311C56.4698 51.1623 56.5392 51.3243 56.5392 51.5094V57.4804H43.4709V51.5017Z" fill="#3C1605"/>
<path d="M74.3982 63.1968C74.3982 63.382 74.3288 63.5287 74.1899 63.6674C74.0511 63.8063 73.8891 63.868 73.6962 63.868H65.2026C65.0174 63.868 64.8631 63.8063 64.732 63.6674C64.5931 63.5364 64.5314 63.382 64.5314 63.1968V51.7101H61.9702V63.1968C61.9702 64.0841 62.2865 64.8555 62.9191 65.4804C63.5517 66.113 64.3154 66.4293 65.2026 66.4293H73.7039C74.6065 66.4293 75.3857 66.113 76.0105 65.4804C76.6431 64.8478 76.9594 64.0841 76.9594 63.1968V51.7101H74.3982V63.1968Z" fill="#3C1605"/>
<path d="M80.6006 52.659C79.968 53.2916 79.6517 54.0553 79.6517 54.9425V69.677H82.2129V54.9425C82.2129 54.7573 82.2747 54.603 82.4135 54.4719C82.5447 54.3407 82.699 54.2713 82.8841 54.2713H91.1231V51.7101H82.8841C81.9969 51.7101 81.2255 52.0264 80.6006 52.659Z" fill="#3C1605"/>
<path d="M106.93 52.659C106.298 52.0264 105.526 51.7101 104.624 51.7101H92.8898V54.2713H104.624C104.809 54.2713 104.963 54.333 105.094 54.4719C105.225 54.603 105.295 54.7573 105.295 54.9425V57.7891H92.8898V63.1968C92.8898 64.0841 93.2061 64.8555 93.8387 65.4804C94.4712 66.113 95.235 66.4293 96.1221 66.4293H107.879V54.9425C107.879 54.0553 107.563 53.2916 106.93 52.659ZM105.295 60.3503V63.868H96.1221C95.937 63.868 95.7827 63.8063 95.6516 63.6674C95.5204 63.5364 95.451 63.382 95.451 63.1968V60.3503H105.295Z" fill="#3C1605"/>
<path d="M41.2184 82.6836V72.4233H49.766C50.2443 72.4233 50.6455 72.593 50.9772 72.9248C51.3089 73.2565 51.4786 73.6576 51.4786 74.1359V80.9709C51.4786 81.4492 51.3089 81.8504 50.9772 82.1821C50.6455 82.5138 50.2443 82.6836 49.766 82.6836H41.2184ZM42.9233 81.5264H49.7583C49.9126 81.5264 50.0437 81.4724 50.1517 81.3644C50.2597 81.2564 50.3137 81.1252 50.3137 80.9709V74.1359C50.3137 73.9816 50.2597 73.8505 50.1517 73.7425C50.0437 73.6345 49.9126 73.5805 49.7583 73.5805H42.9233C42.769 73.5805 42.6379 73.6345 42.5299 73.7425C42.4219 73.8505 42.3678 73.9816 42.3678 74.1359V80.9709C42.3678 81.1252 42.4219 81.2564 42.5299 81.3644C42.6456 81.4724 42.7767 81.5264 42.9233 81.5264Z" fill="#3C1605"/>
<path d="M56.5008 82.6836C56.0225 82.6836 55.6213 82.5139 55.2819 82.1744C54.9424 81.835 54.7727 81.4338 54.7727 80.9555V76.1417C54.7727 75.6634 54.9424 75.2623 55.2819 74.9228C55.6213 74.5834 56.0225 74.4137 56.5008 74.4137H61.4612C61.9472 74.4137 62.356 74.5834 62.6955 74.9228C63.0349 75.2623 63.2046 75.6634 63.2046 76.1417V79.1349H55.953V80.9555C55.953 81.1098 56.007 81.241 56.115 81.349C56.223 81.457 56.3542 81.511 56.5085 81.511H63.2046V82.6759H56.5008V82.6836ZM55.9453 77.97H62.0166V76.1494C62.0166 75.9951 61.9626 75.864 61.8546 75.756C61.7466 75.648 61.6154 75.594 61.4612 75.594H56.5008C56.3465 75.594 56.2153 75.648 56.1073 75.756C55.9993 75.864 55.9453 75.9951 55.9453 76.1494V77.97Z" fill="#3C1605"/>
<path d="M58.1209 73.0173L59.5326 71.5439L60.5123 72.0993L59.1083 73.5805L58.1209 73.0173Z" fill="#3C1605"/>
<path d="M67.3859 82.6837C66.9076 82.6837 66.5064 82.514 66.167 82.1745C65.8276 81.8351 65.6578 81.4339 65.6578 80.9556V71.7137H66.8227V80.9632C66.8227 81.1175 66.8767 81.2488 66.9847 81.3568C67.0927 81.4648 67.2239 81.5188 67.3782 81.5188H68.7745V82.6837H67.3859Z" fill="#3C1605"/>
<path d="M71.7445 72.8785V71.7137H72.9094V72.8785H71.7445ZM71.7445 82.6837V74.4214H72.9094V82.6837H71.7445Z" fill="#3C1605"/>
<path d="M77.9855 82.6836C77.5072 82.6836 77.106 82.5139 76.7666 82.1744C76.4272 81.835 76.2575 81.4338 76.2575 80.9555V76.1417C76.2575 75.6634 76.4272 75.2623 76.7666 74.9228C77.106 74.5834 77.5072 74.4137 77.9855 74.4137H84.6508V75.5786H77.9855C77.8312 75.5786 77.7001 75.6325 77.5921 75.7405C77.4841 75.8486 77.4301 75.9797 77.4301 76.134V80.9478C77.4301 81.1021 77.4841 81.2333 77.5921 81.3413C77.7001 81.4493 77.8312 81.5033 77.9855 81.5033H84.6817V82.6681H77.9855V82.6836Z" fill="#3C1605"/>
<path d="M89.3103 82.6836C88.832 82.6836 88.4309 82.5139 88.0914 82.1744C87.752 81.835 87.5823 81.4338 87.5823 80.9555V76.1417C87.5823 75.6634 87.752 75.2623 88.0914 74.9228C88.4309 74.5834 88.832 74.4137 89.3103 74.4137H94.2707C94.7567 74.4137 95.1656 74.5834 95.505 74.9228C95.8445 75.2623 96.0142 75.6634 96.0142 76.1417V79.1349H88.7626V80.9555C88.7626 81.1098 88.8166 81.241 88.9246 81.349C89.0326 81.457 89.1637 81.511 89.318 81.511H96.0142V82.6759H89.3103V82.6836ZM88.7549 77.97H94.8262V76.1494C94.8262 75.9951 94.7722 75.864 94.6642 75.756C94.5562 75.648 94.425 75.594 94.2707 75.594H89.3103C89.156 75.594 89.0249 75.648 88.9169 75.756C88.8089 75.864 88.7549 75.9951 88.7549 76.1494V77.97Z" fill="#3C1605"/>
<path d="M100.905 82.6836C100.427 82.6836 100.026 82.5139 99.6867 82.1744C99.3467 81.835 99.1767 81.4338 99.1767 80.9555V80.8398H100.342V80.9555C100.342 81.1098 100.396 81.241 100.504 81.349C100.612 81.457 100.743 81.511 100.898 81.511H105.858C106.012 81.511 106.144 81.457 106.252 81.349C106.36 81.241 106.414 81.1098 106.414 80.9555V79.6904C106.414 79.5361 106.36 79.4049 106.252 79.2969C106.144 79.1889 106.012 79.1349 105.858 79.1349H100.898C100.419 79.1349 100.018 78.9652 99.6787 78.6258C99.3387 78.2863 99.1697 77.8852 99.1697 77.4069V76.1417C99.1697 75.6634 99.3387 75.2623 99.6787 74.9228C100.018 74.5834 100.419 74.4137 100.898 74.4137H105.858C106.344 74.4137 106.753 74.5834 107.092 74.9228C107.432 75.2623 107.602 75.6634 107.602 76.1417V76.2574H106.421V76.1417C106.421 75.9874 106.367 75.8563 106.259 75.7483C106.151 75.6403 106.02 75.5863 105.866 75.5863H100.905C100.751 75.5863 100.62 75.6403 100.512 75.7483C100.404 75.8563 100.35 75.9874 100.35 76.1417V77.4069C100.35 77.5612 100.404 77.6923 100.512 77.8003C100.62 77.9083 100.751 77.9623 100.905 77.9623H105.866C106.352 77.9623 106.761 78.132 107.1 78.4715C107.44 78.8109 107.609 79.2121 107.609 79.6904V80.9555C107.609 81.4338 107.44 81.835 107.1 82.1744C106.761 82.5139 106.352 82.6836 105.866 82.6836H100.905Z" fill="#3C1605"/>
<path d="M41.2184 69.6847H107.602" stroke="#EA5329" stroke-width="1.4961" stroke-miterlimit="10"/>
</svg>
